<?xml version="1.0" encoding="iso-8859-1"?>
<!-- Generator: Adobe Illustrator 19.0.0, SVG Export Plug-In . SVG Version: 6.00 Build 0)  -->
<svg version="1.1" id="Capa_1" xmlns="http://www.w3.org/2000/svg" xmlns:xlink="http://www.w3.org/1999/xlink" x="0px" y="0px"
	 viewBox="0 0 512.007 512.007" style="enable-background:new 0 0 512.007 512.007;" xml:space="preserve">
<circle style="fill:#41B4E6;" cx="256.003" cy="256.003" r="256.003"/>
<path style="fill:#0091C8;" d="M512,256c0-6.142-0.23-12.23-0.656-18.263l-97.603-97.603c-76.087,26.888-67.06,23.698-99.312,35.094
	c0.655,32.974-8.479,64.928-23.506,93.352l-93.352-93.352l-43.309-15.305l-9.972-3.524L98.26,140.134
	c0,0-1.141,72.464,65.582,140.638l-0.019,0.019l62.833,62.833c-17.548,11.995-38.554,19.05-50.225,20.269c0,0.182,0,7.752,0,7.977
	c4.859,4.859,86.233,86.233,134.258,134.258C425.794,481.074,512,378.613,512,256z"/>
<path style="fill:#0073AA;" d="M314.43,175.228l99.312-35.095c0,0,1.386,86.933-86.549,159.943
	c-86.947,72.19-150.762,71.791-150.762,71.791v-7.977c0,0,19.903-2.078,43.473-15.954C259.188,324.812,316.025,256,314.43,175.228z"
	/>
<path style="fill:#FF8C46;" d="M314.441,176.674c0.006-0.486,0.019-0.97,0.02-1.457l48.931-17.291c0,0,0.935,65.692-53.75,134.574
	c-63.016,79.376-133.213,79.369-133.213,79.369v-7.977c0,0,19.903-2.078,43.473-15.953
	C258.953,324.95,315.336,256.819,314.441,176.674z"/>
<path style="fill:#0073AA;" d="M197.571,175.228l-99.313-35.095c0,0-1.386,86.933,86.549,159.943
	c86.947,72.19,150.762,71.791,150.762,71.791v-7.977c0,0-19.903-2.078-43.473-15.954C252.812,324.812,195.976,256,197.571,175.228z"
	/>
<path id="SVGCleanerId_0" style="fill:#82BE50;" d="M197.559,176.674c-0.006-0.486-0.019-0.97-0.02-1.457l-48.931-17.291
	c0,0-0.935,65.692,53.75,134.574c63.016,79.376,133.213,79.369,133.213,79.369v-7.977c0,0-19.903-2.078-43.473-15.953
	C253.047,324.95,196.664,256.819,197.559,176.674z"/>
<g>
	<path id="SVGCleanerId_0_1_" style="fill:#82BE50;" d="M197.559,176.674c-0.006-0.486-0.019-0.97-0.02-1.457l-48.931-17.291
		c0,0-0.935,65.692,53.75,134.574c63.016,79.376,133.213,79.369,133.213,79.369v-7.977c0,0-19.903-2.078-43.473-15.953
		C253.047,324.95,196.664,256.819,197.559,176.674z"/>
</g>
<path style="fill:#5A915A;" d="M248.091,327.995c-79.585-66.078-90.621-166.938-90.621-166.938l-13.18-4.657
	c0,0,3.383,67.217,58.067,136.099c63.016,79.376,133.213,79.369,133.213,79.369v-0.134v-7.843
	C316.957,362.827,275.506,350.757,248.091,327.995z"/>
<path style="fill:#FF640A;" d="M263.909,327.995c79.585-66.078,90.621-166.938,90.621-166.938l13.18-4.657
	c0,0-3.383,67.217-58.067,136.099c-63.016,79.376-133.213,79.369-133.213,79.369v-0.134v-7.843
	C195.044,362.827,236.494,350.757,263.909,327.995z"/>
<g>
</g>
<g>
</g>
<g>
</g>
<g>
</g>
<g>
</g>
<g>
</g>
<g>
</g>
<g>
</g>
<g>
</g>
<g>
</g>
<g>
</g>
<g>
</g>
<g>
</g>
<g>
</g>
<g>
</g>
</svg>
